<svg xmlns="http://www.w3.org/2000/svg" width="800" height="600" viewBox="0 0 800 600">
  <defs>
    <linearGradient id="bg" x1="0" y1="0" x2="1" y2="1">
      <stop offset="0" stop-color="#C45B8C"/>
      <stop offset="1" stop-color="#E08AB0"/>
    </linearGradient>
  </defs>
  <rect fill="url(#bg)" width="800" height="600"/>
  <circle cx="196" cy="120" r="110" fill="#fff" opacity=".12"/>
  <circle cx="604" cy="500" r="140" fill="#FFE4F0" opacity=".18"/>
  <ellipse cx="400" cy="250" rx="38" ry="90" fill="#fff" opacity=".85" transform="rotate(0 400 280)"/><ellipse cx="400" cy="250" rx="38" ry="90" fill="#fff" opacity=".85" transform="rotate(45 400 280)"/><ellipse cx="400" cy="250" rx="38" ry="90" fill="#fff" opacity=".85" transform="rotate(90 400 280)"/><ellipse cx="400" cy="250" rx="38" ry="90" fill="#fff" opacity=".85" transform="rotate(135 400 280)"/><ellipse cx="400" cy="250" rx="38" ry="90" fill="#fff" opacity=".85" transform="rotate(180 400 280)"/><ellipse cx="400" cy="250" rx="38" ry="90" fill="#fff" opacity=".85" transform="rotate(225 400 280)"/><ellipse cx="400" cy="250" rx="38" ry="90" fill="#fff" opacity=".85" transform="rotate(270 400 280)"/><ellipse cx="400" cy="250" rx="38" ry="90" fill="#fff" opacity=".85" transform="rotate(315 400 280)"/><circle cx="400" cy="280" r="33" fill="#FFE4F0"/><rect x="392" y="320" width="16" height="120" rx="8" fill="#2F8A5B"/>
  <text x="400" y="545" text-anchor="middle" fill="#fff" font-size="34" font-family="PingFang SC, Noto Sans SC, sans-serif">鲜花</text>
</svg>
